<svg width="62" height="62" viewBox="0 0 62 62" fill="none" xmlns="http://www.w3.org/2000/svg">
<circle cx="30.9642" cy="30.9525" r="30.4389" fill="white"/>
<path d="M37.2598 19.4981H47.5239V21.9883H37.2598V19.4981ZM26.9751 29.3507C29.244 28.2651 30.4325 26.6136 30.4325 24.0617C30.4325 19.0145 26.6767 17.79 22.3395 17.79H10.4033V43.1236H22.6739C27.2735 43.1236 31.5901 40.9113 31.5901 35.7664C31.5901 32.5868 30.0878 30.2356 26.9751 29.3507ZM15.9701 22.1118H21.1922C23.2039 22.1118 25.0097 22.6726 25.0097 25.0084C25.0097 27.1589 23.6052 28.0233 21.6141 28.0233H15.9701V22.1118ZM21.9125 38.8224H15.965V31.8459H22.0308C24.4798 31.8459 26.0284 32.8698 26.0284 35.4628C26.0284 38.0147 24.1814 38.8224 21.9125 38.8224ZM51.5369 34.2178C51.5369 28.7899 48.3625 24.2675 42.6208 24.2675C37.0385 24.2675 33.2416 28.4709 33.2416 33.9811C33.2416 39.6919 36.8379 43.6124 42.6208 43.6124C46.9991 43.6124 49.8339 41.6419 51.1973 37.4385H46.7573C46.2737 39.0077 44.3083 39.8309 42.7803 39.8309C39.8271 39.8309 38.2836 38.1022 38.2836 35.1644H51.5009C51.5163 34.8609 51.5369 34.5419 51.5369 34.2178ZM38.2836 31.9849C38.4431 29.5719 40.0535 28.0644 42.4613 28.0644C44.9926 28.0644 46.2582 29.5513 46.4795 31.9849H38.2836Z" fill="#212A39"/>
</svg>
