<svg width="62" height="62" viewBox="0 0 62 62" fill="none" xmlns="http://www.w3.org/2000/svg">
<circle cx="30.7474" cy="30.9525" r="30.4389" fill="white"/>
<path d="M31.5729 7.09546C18.8705 7.09546 8.53809 17.4279 8.53809 30.1303C8.53809 42.8326 18.8705 53.1651 31.5729 53.1651C44.2753 53.1651 54.6077 42.8326 54.6077 30.1303C54.6077 17.4279 44.2753 7.09546 31.5729 7.09546ZM46.8058 17.7158C49.5467 21.0658 51.2079 25.3295 51.2466 29.9752C50.5988 29.8368 44.0925 28.5189 37.5476 29.344C37.4091 29.0062 37.2707 28.6684 37.1267 28.3307C36.717 27.3727 36.2795 26.4148 35.8199 25.479C43.0903 22.5055 46.3905 18.2806 46.8058 17.7158ZM31.5729 10.4842C36.573 10.4842 41.1412 12.3613 44.613 15.44C44.2587 15.9439 41.2962 19.9252 34.3027 22.5498C31.0801 16.625 27.5086 11.7633 26.9604 11.0324C28.4721 10.667 30.0169 10.4842 31.5729 10.4842ZM23.2062 12.3558C23.7267 13.0646 27.2428 17.9429 30.4987 23.7348C21.2958 26.1767 13.1893 26.1435 12.3089 26.1324C13.588 20.0249 17.7022 14.9528 23.2062 12.3558ZM11.8992 30.158C11.8992 29.9586 11.9047 29.7537 11.9102 29.5544C12.7685 29.571 22.3036 29.6928 32.1322 26.7526C32.6969 27.8545 33.2341 28.973 33.7269 30.0915C33.4666 30.1635 33.2064 30.241 32.9517 30.3241C22.8019 33.6132 17.4032 42.5558 16.9547 43.3144C13.8151 39.8259 11.8992 35.2134 11.8992 30.158ZM31.5729 49.8317C27.0213 49.8317 22.8296 48.2813 19.4962 45.6788C19.8506 44.9534 23.8319 37.2622 34.9284 33.3917L35.0558 33.3474C37.8189 40.5236 38.9595 46.5426 39.253 48.2702C36.8258 49.3076 34.2125 49.8389 31.5729 49.8317ZM42.5643 46.4706C42.3649 45.2745 41.3184 39.5158 38.7436 32.4448C44.912 31.4592 50.3274 33.0761 50.9974 33.2865C50.1226 38.7572 46.983 43.486 42.5643 46.4706Z" fill="#212A39"/>
</svg>
