<svg width="52" height="52" viewBox="0 0 52 52" fill="none" xmlns="http://www.w3.org/2000/svg">
<path d="M11.9235 10.0251L11.917 14.6249V37.3836C11.917 39.2512 12.6589 41.0422 13.9794 42.3628C15.3 43.6834 17.0911 44.4253 18.9587 44.4253H37.6267C37.2903 45.3758 36.6675 46.1987 35.8442 46.7807C35.0208 47.3627 34.0373 47.6752 33.029 47.6753H18.9587C16.2291 47.6753 13.6114 46.591 11.6814 44.6609C9.75129 42.7308 8.66699 40.1131 8.66699 37.3836V14.6249C8.66699 12.5016 10.0255 10.6924 11.9235 10.0251ZM28.4443 4.33325C29.7378 4.33325 30.9793 4.84675 31.8937 5.76325L41.8993 15.7733C42.8137 16.6876 43.3272 17.9291 43.3272 19.2204V37.3836C43.3272 38.6765 42.8135 39.9165 41.8993 40.8307C40.9851 41.745 39.7451 42.2586 38.4522 42.2586H18.963C17.6701 42.2586 16.4301 41.745 15.5158 40.8307C14.6016 39.9165 14.088 38.6765 14.088 37.3836V9.20825C14.088 7.91532 14.6016 6.67535 15.5158 5.76111C16.4301 4.84687 17.6701 4.33325 18.963 4.33325H28.4443ZM28.167 7.58325H18.963C18.532 7.58325 18.1187 7.75446 17.8139 8.0592C17.5092 8.36395 17.338 8.77728 17.338 9.20825V37.3836C17.338 38.2806 18.066 39.0086 18.963 39.0086H38.4522C38.8831 39.0086 39.2965 38.8374 39.6012 38.5326C39.906 38.2279 40.0772 37.8146 40.0772 37.3836V19.5064H33.042C31.8071 19.5066 30.6181 19.0381 29.7152 18.1956C28.8124 17.353 28.2629 16.1992 28.1778 14.9673L28.167 14.6336V7.58325ZM31.417 9.88209L31.4192 14.6336C31.4192 15.4569 32.0302 16.1351 32.8232 16.2434L33.0442 16.2586L37.7892 16.2564L31.4192 9.88209H31.417Z" fill="#FFFEFE"/>
</svg>
