<svg width="62" height="62" viewBox="0 0 62 62" fill="none" xmlns="http://www.w3.org/2000/svg">
<circle cx="31.1635" cy="30.9525" r="30.4389" fill="white"/>
<path fill-rule="evenodd" clip-rule="evenodd" d="M22.6797 10.425C24.8875 10.3234 25.5914 10.3008 31.2152 10.3008C36.839 10.3008 37.5429 10.3252 39.7488 10.425C41.9547 10.5248 43.4604 10.8767 44.7779 11.3868C46.1575 11.9081 47.4091 12.7231 48.4443 13.7771C49.4983 14.8104 50.3114 16.0601 50.8308 17.4416C51.3428 18.7591 51.6928 20.2648 51.7945 22.4669C51.8961 24.6784 51.9187 25.3823 51.9187 31.0043C51.9187 36.6281 51.8942 37.332 51.7945 39.5398C51.6947 41.7418 51.3428 43.2476 50.8308 44.5651C50.3113 45.9467 49.4969 47.1985 48.4443 48.2333C47.4091 49.2873 46.1575 50.1004 44.7779 50.6199C43.4604 51.1318 41.9547 51.4819 39.7526 51.5835C37.5429 51.6852 36.839 51.7078 31.2152 51.7078C25.5914 51.7078 24.8875 51.6833 22.6797 51.5835C20.4776 51.4838 18.9719 51.1318 17.6544 50.6199C16.2728 50.1003 15.021 49.2859 13.9861 48.2333C12.9329 47.1994 12.1178 45.9482 11.5977 44.5669C11.0877 43.2494 10.7376 41.7437 10.6359 39.5416C10.5343 37.3301 10.5117 36.6262 10.5117 31.0043C10.5117 25.3804 10.5362 24.6765 10.6359 22.4707C10.7357 20.2648 11.0877 18.7591 11.5977 17.4416C12.1185 16.0603 12.9343 14.8091 13.988 13.7752C15.0214 12.7222 16.2719 11.9071 17.6525 11.3868C18.97 10.8767 20.4757 10.5266 22.6778 10.425H22.6797ZM39.5813 14.1516C37.398 14.0519 36.743 14.0312 31.2152 14.0312C25.6874 14.0312 25.0324 14.0519 22.8491 14.1516C20.8296 14.2439 19.7342 14.5808 19.0039 14.865C18.0384 15.2414 17.3476 15.6875 16.623 16.4121C15.9361 17.0803 15.4075 17.8938 15.0759 18.793C14.7917 19.5232 14.4548 20.6186 14.3626 22.6382C14.2628 24.8215 14.2421 25.4764 14.2421 31.0043C14.2421 36.5321 14.2628 37.1871 14.3626 39.3704C14.4548 41.3899 14.7917 42.4853 15.0759 43.2156C15.4072 44.1133 15.936 44.9283 16.623 45.5965C17.2912 46.2834 18.1061 46.8123 19.0039 47.1436C19.7342 47.4278 20.8296 47.7647 22.8491 47.8569C25.0324 47.9567 25.6855 47.9774 31.2152 47.9774C36.7449 47.9774 37.398 47.9567 39.5813 47.8569C41.6008 47.7647 42.6962 47.4278 43.4265 47.1436C44.392 46.7672 45.0828 46.3211 45.8074 45.5965C46.4944 44.9283 47.0233 44.1133 47.3545 43.2156C47.6387 42.4853 47.9756 41.3899 48.0678 39.3704C48.1676 37.1871 48.1883 36.5321 48.1883 31.0043C48.1883 25.4764 48.1676 24.8215 48.0678 22.6382C47.9756 20.6186 47.6387 19.5232 47.3545 18.793C46.9781 17.8274 46.532 17.1367 45.8074 16.4121C45.1391 15.7252 44.3256 15.1966 43.4265 14.865C42.6962 14.5808 41.6008 14.2439 39.5813 14.1516ZM28.5708 37.3866C30.0476 38.0014 31.6921 38.0843 33.2233 37.6213C34.7545 37.1583 36.0775 36.1781 36.9663 34.848C37.8551 33.518 38.2545 31.9206 38.0964 30.3288C37.9383 28.7369 37.2324 27.2494 36.0993 26.1201C35.3771 25.3983 34.5037 24.8456 33.5422 24.5018C32.5806 24.158 31.5548 24.0316 30.5386 24.1319C29.5223 24.2321 28.541 24.5564 27.6651 25.0814C26.7893 25.6065 26.0407 26.3192 25.4734 27.1682C24.906 28.0172 24.534 28.9815 24.384 29.9916C24.2341 31.0017 24.3099 32.0325 24.6062 33.0097C24.9024 33.987 25.4116 34.8864 26.0972 35.6432C26.7827 36.4 27.6275 36.9955 28.5708 37.3866ZM23.6904 23.4795C24.6786 22.4913 25.8517 21.7075 27.1428 21.1727C28.4339 20.6379 29.8177 20.3626 31.2152 20.3626C32.6127 20.3626 33.9965 20.6379 35.2876 21.1727C36.5787 21.7075 37.7518 22.4913 38.74 23.4795C39.7282 24.4677 40.512 25.6408 41.0468 26.9319C41.5816 28.223 41.8568 29.6068 41.8568 31.0043C41.8568 32.4017 41.5816 33.7855 41.0468 35.0766C40.512 36.3678 39.7282 37.5409 38.74 38.529C36.7443 40.5247 34.0375 41.6459 31.2152 41.6459C28.3929 41.6459 25.6861 40.5247 23.6904 38.529C21.6947 36.5334 20.5736 33.8266 20.5736 31.0043C20.5736 28.1819 21.6947 25.4752 23.6904 23.4795ZM44.217 21.9474C44.4619 21.7164 44.6579 21.4387 44.7935 21.1305C44.9291 20.8224 45.0015 20.4902 45.0064 20.1536C45.0113 19.817 44.9486 19.4829 44.8221 19.1709C44.6955 18.859 44.5077 18.5756 44.2696 18.3376C44.0316 18.0995 43.7482 17.9117 43.4363 17.7851C43.1243 17.6586 42.7902 17.5959 42.4536 17.6008C42.117 17.6057 41.7848 17.6781 41.4767 17.8137C41.1685 17.9493 40.8908 18.1453 40.6598 18.3902C40.2105 18.8664 39.9646 19.499 39.9741 20.1536C39.9836 20.8083 40.2479 21.4334 40.7109 21.8963C41.1738 22.3593 41.7989 22.6236 42.4536 22.6331C43.1082 22.6426 43.7408 22.3967 44.217 21.9474Z" fill="#212A39"/>
</svg>
